<svg width="125" height="100" viewBox="0 0 125 100" fill="none" xmlns="http://www.w3.org/2000/svg">
<g id="Group 34010">
<path id="Vector" d="M124.993 49.9986C124.993 36.7382 119.725 24.0208 110.349 14.6442C100.972 5.2677 88.255 1.7389e-06 74.9946 0C61.7342 -1.73889e-06 49.017 5.2677 39.6404 14.6442C30.2638 24.0208 24.9961 36.7382 24.9961 49.9986H40.6209C45.7984 49.9986 49.8363 45.6597 51.7327 40.8418C52.9778 37.6787 54.8672 34.7718 57.3173 32.3213C62.0056 27.6331 68.3644 24.9993 74.9946 24.9993C81.6248 24.9993 87.9836 27.6331 92.6719 32.3213C97.3602 37.0096 99.9938 43.3684 99.9938 49.9986H124.993Z" fill="url(#paint0_linear_565_2834)"/>
<path id="Vector_2" d="M96.1912 69.1354C98.7039 63.0693 99.9973 56.5677 99.9973 50.002H124.994C124.994 77.6153 102.609 100 74.9953 100C70.6709 100 66.4744 99.4513 62.4727 98.4193C64.7369 97.8359 66.9624 97.093 69.1322 96.1944C75.1983 93.6817 80.7101 89.999 85.3529 85.3562C89.9958 80.7133 93.6788 75.2016 96.1912 69.1354Z" fill="#4392F9"/>
<path id="Vector_3" d="M0 49.9956C-9.3931e-07 56.5617 1.29325 63.0632 3.8059 69.1294C6.31858 75.1955 10.0014 80.7073 14.6442 85.3502C19.287 89.9927 24.7988 93.6757 30.8649 96.1884C36.931 98.7011 43.4325 99.9942 49.9986 99.9942C56.5643 99.9942 63.0659 98.7011 69.1321 96.1884C75.1982 93.6757 80.71 89.9927 85.3528 85.3502C89.9957 80.7073 93.6784 75.1955 96.1911 69.1294C98.7038 63.0632 99.9972 56.5617 99.9972 49.9956H84.3724C79.1948 49.9956 75.157 54.3345 73.2605 59.152C73.2067 59.2893 73.1512 59.426 73.0948 59.5627C71.8385 62.5956 69.9971 65.3516 67.6756 67.6729C65.3543 69.9941 62.5982 71.8358 59.5653 73.0922C56.5324 74.3485 53.2816 74.9951 49.9986 74.9951C46.7156 74.9951 43.4648 74.3485 40.4319 73.0922C37.3986 71.8358 34.6429 69.9941 32.3213 67.6729C30 65.3516 28.1586 62.5956 26.9022 59.5627C25.6459 56.5294 24.9993 53.2786 24.9993 49.9956H0Z" fill="url(#paint1_linear_565_2834)"/>
<path id="Vector_4" d="M0.00390625 49.9986C0.00390625 22.385 22.3889 0 50.0022 0C54.3257 0 58.5208 0.548716 62.5223 1.58035C53.9363 3.79217 46.0159 8.26832 39.6397 14.6443C30.2632 24.0207 24.9956 36.7382 24.9956 49.9986H0.00390625Z" fill="#F83758"/>
</g>
<defs>
<linearGradient id="paint0_linear_565_2834" x1="124.993" y1="24.9993" x2="24.9961" y2="24.9993" gradientUnits="userSpaceOnUse">
<stop stop-color="#CFE2FC"/>
<stop offset="1" stop-color="#4392F9"/>
</linearGradient>
<linearGradient id="paint1_linear_565_2834" x1="3.27825e-06" y1="74.9951" x2="99.9972" y2="74.9951" gradientUnits="userSpaceOnUse">
<stop stop-color="#F8BCC6"/>
<stop offset="1" stop-color="#F83758"/>
</linearGradient>
</defs>
</svg>
